<?xml version="1.0" encoding="utf-8"?>
<!-- Generator: Adobe Illustrator 23.0.0, SVG Export Plug-In . SVG Version: 6.00 Build 0)  -->
<svg version="1.1" id="Layer_1" xmlns="http://www.w3.org/2000/svg" xmlns:xlink="http://www.w3.org/1999/xlink" x="0px" y="0px"
	 viewBox="0 0 209.87 66.04" style="enable-background:new 0 0 209.87 66.04;" xml:space="preserve">
<style type="text/css">
	.st0{fill:#252629;}
	.st1{fill:#FC5A34;}
</style>
<g>
	<g>
		<g>
			<g>
				<path class="st0" d="M66.03,29.72v6.6l-7.16,2.28l-0.11,0.03c0,0.23-0.02,0.45-0.05,0.65c-0.05,0.33-0.14,0.63-0.25,0.94
					c0,0.01-0.01,0.02-0.01,0.04c-0.11,0.31-0.23,0.64-0.36,1.01l-5.61-5.61C54.46,24.1,45.21,13.21,33,13.21
					c-10.9,0-19.81,8.92-19.81,19.81c0,12.55,11.23,21.79,23.78,19.48l5.28,5.29c-0.99,0.33-2.31,0.66-3.3,0.99l-0.01,0.03
					l-2.63,7.23h-6.6l-2.64-6.93c-2.97-0.66-5.61-1.98-8.25-3.63l-6.93,3.3l-4.62-4.62l3.3-6.93c-0.54-0.95-1.08-2-1.58-3.13
					c-0.71-1.62-1.33-3.37-1.72-5.13l-0.03-0.01L0,36.32v-6.6l7.23-2.63l0.03-0.01c0.14-0.66,0.31-1.3,0.49-1.92
					c0-0.01,0.01-0.02,0.01-0.03c0.64-2.2,1.53-4.26,2.81-6.3l-3.3-6.94l4.62-4.29l6.75,3.21l0.18,0.09
					c2.64-1.65,5.28-2.97,8.25-3.63l0.01-0.03L29.72,0h6.6l2.28,7.16l0.03,0.11c2.97,0.66,5.61,1.65,8.25,3.31l0.07-0.03l6.86-3.27
					l4.62,4.62l-3.21,6.76l-0.09,0.18c1.65,2.64,2.97,5.61,3.63,8.58l0.11,0.03L66.03,29.72z"/>
			</g>
		</g>
		<g>
			<g>
				<path class="st1" d="M55,47.74c-1.88,2.8-4.28,5.22-7.06,7.13l-9.96-9.96c-10.9,4.29-20.47-6.27-17.5-15.51l5.93,5.6
					c2.31,2.64,6.93,2.64,9.25,0c2.64-2.31,2.64-6.6,0-9.25l-5.94-5.94c10.57-2.97,20.14,7.92,15.52,18.16L55,47.74z"/>
			</g>
		</g>
	</g>
	<g>
		<path class="st0" d="M87.79,58.91h-0.88l-2.63-4v4H83.4V53.5h0.88l2.63,4.02V53.5h0.88C87.79,53.5,87.79,58.91,87.79,58.91z"/>
		<path class="st0" d="M91.65,54.19v1.64h2v0.68h-2v1.68h2.23v0.71h-3.1v-5.42h3.1v0.71C93.88,54.19,91.65,54.19,91.65,54.19z"/>
		<path class="st0" d="M103.52,53.49l-1.35,5.42h-1.07l-1.14-4.19l-1.14,4.19h-1.08l-1.35-5.42h0.96l0.94,4.41l1.19-4.41h0.97
			l1.19,4.41l0.94-4.41C102.58,53.49,103.52,53.49,103.52,53.49z"/>
		<path class="st0" d="M113.75,58.91l-1.01-1.14c0,0.05-0.03,0.14-0.08,0.27c-0.07,0.28-0.23,0.5-0.46,0.67
			c-0.24,0.17-0.52,0.26-0.85,0.26s-0.62-0.07-0.88-0.21c-0.25-0.14-0.45-0.33-0.58-0.58s-0.21-0.53-0.21-0.84
			c0-0.32,0.06-0.6,0.19-0.84c0.13-0.24,0.3-0.41,0.51-0.54c0.21-0.12,0.45-0.18,0.71-0.18h0.05l-0.1-0.14
			c-0.12-0.15-0.22-0.31-0.28-0.46c-0.07-0.15-0.1-0.32-0.1-0.51c0-0.22,0.05-0.42,0.16-0.61c0.11-0.19,0.27-0.34,0.49-0.46
			s0.48-0.17,0.78-0.17c0.45,0,0.79,0.11,1.03,0.32s0.39,0.49,0.45,0.81c0.05,0.17,0.06,0.35,0.05,0.55h-0.83v-0.08
			c0-0.08,0-0.13-0.01-0.17c-0.01-0.21-0.07-0.38-0.19-0.51s-0.29-0.18-0.5-0.18c-0.19,0-0.35,0.06-0.46,0.17
			c-0.11,0.11-0.16,0.25-0.16,0.41c0,0.14,0.03,0.26,0.08,0.36s0.14,0.22,0.25,0.36l2.83,3.43L113.75,58.91L113.75,58.91z
			 M111.97,57.98c0.16-0.16,0.24-0.36,0.24-0.61c0-0.17-0.04-0.33-0.13-0.47s-0.21-0.25-0.35-0.33c-0.15-0.08-0.3-0.12-0.46-0.12
			c-0.25,0-0.45,0.08-0.6,0.23c-0.15,0.15-0.23,0.36-0.23,0.64s0.09,0.5,0.26,0.66c0.18,0.16,0.39,0.24,0.65,0.24
			C111.6,58.22,111.81,58.14,111.97,57.98z"/>
		<path class="st0" d="M121.7,53.49v3.22c0,0.48,0.11,0.84,0.32,1.07c0.21,0.24,0.51,0.35,0.89,0.35s0.67-0.12,0.89-0.35
			c0.21-0.24,0.32-0.59,0.32-1.07v-3.22H125v3.22c0,0.74-0.19,1.3-0.58,1.69c-0.38,0.38-0.89,0.57-1.52,0.57
			c-0.62,0-1.13-0.19-1.5-0.57c-0.38-0.38-0.57-0.94-0.57-1.69v-3.22H121.7z"/>
		<path class="st0" d="M131.31,58.21c-0.13,0.23-0.32,0.41-0.58,0.55s-0.58,0.21-0.96,0.21c-0.37,0-0.7-0.07-0.99-0.2
			s-0.52-0.31-0.7-0.55c-0.17-0.24-0.27-0.51-0.3-0.81h0.94c0.03,0.24,0.13,0.44,0.3,0.61c0.18,0.17,0.41,0.25,0.71,0.25
			c0.27,0,0.47-0.07,0.62-0.21s0.22-0.33,0.22-0.55c0-0.19-0.05-0.35-0.16-0.48s-0.24-0.22-0.4-0.3s-0.38-0.15-0.65-0.25
			c-0.34-0.11-0.61-0.21-0.83-0.32c-0.21-0.11-0.39-0.26-0.54-0.47c-0.15-0.2-0.22-0.47-0.22-0.81c0-0.29,0.07-0.55,0.21-0.77
			s0.35-0.39,0.61-0.51c0.27-0.12,0.57-0.18,0.92-0.18c0.55,0,0.99,0.13,1.32,0.4c0.33,0.27,0.51,0.61,0.56,1.04h-0.94
			c-0.04-0.2-0.13-0.38-0.29-0.53c-0.16-0.15-0.37-0.22-0.64-0.22c-0.25,0-0.44,0.06-0.59,0.19s-0.22,0.31-0.22,0.54
			c0,0.18,0.05,0.34,0.15,0.46c0.1,0.12,0.23,0.21,0.39,0.28c0.16,0.07,0.37,0.15,0.64,0.24c0.34,0.11,0.62,0.22,0.84,0.33
			c0.22,0.11,0.4,0.27,0.55,0.48c0.15,0.21,0.23,0.49,0.23,0.83C131.51,57.73,131.44,57.98,131.31,58.21z"/>
		<path class="st0" d="M135.18,54.19v1.64h2v0.68h-2v1.68h2.23v0.71h-3.1v-5.42h3.1v0.71C137.41,54.19,135.18,54.19,135.18,54.19z"
			/>
		<path class="st0" d="M144.51,57.62c-0.22,0.41-0.55,0.72-0.98,0.95s-0.94,0.34-1.53,0.34h-1.81v-5.42H142
			c0.59,0,1.1,0.11,1.53,0.33s0.75,0.54,0.98,0.94c0.22,0.4,0.33,0.88,0.33,1.43S144.73,57.22,144.51,57.62z M143.43,57.61
			c0.35-0.34,0.52-0.81,0.52-1.42c0-0.61-0.17-1.08-0.52-1.42c-0.35-0.34-0.85-0.51-1.5-0.51h-0.87v3.85h0.87
			C142.58,58.12,143.08,57.95,143.43,57.61z"/>
		<path class="st0" d="M154.61,57.73h-2.29l-0.41,1.17h-0.94l2-5.34h1.01l1.99,5.34h-0.94L154.61,57.73z M154.37,57.06l-0.9-2.53
			l-0.9,2.53H154.37z"/>
		<path class="st0" d="M159.38,53.49v3.22c0,0.48,0.11,0.84,0.32,1.07c0.21,0.24,0.51,0.35,0.89,0.35s0.67-0.12,0.89-0.35
			c0.21-0.24,0.32-0.59,0.32-1.07v-3.22h0.88v3.22c0,0.74-0.19,1.3-0.58,1.69c-0.38,0.38-0.89,0.57-1.52,0.57
			c-0.62,0-1.13-0.19-1.5-0.57c-0.38-0.38-0.57-0.94-0.57-1.69v-3.22H159.38z"/>
		<path class="st0" d="M169.11,53.49v0.71h-1.51v4.71h-0.88V54.2h-1.51v-0.71H169.11z"/>
		<path class="st0" d="M175.56,53.77c0.41,0.24,0.73,0.56,0.96,0.99c0.23,0.42,0.35,0.9,0.35,1.43s-0.12,1.01-0.35,1.43
			c-0.23,0.42-0.55,0.75-0.96,0.99s-0.86,0.36-1.36,0.36c-0.51,0-0.96-0.12-1.37-0.36c-0.41-0.24-0.73-0.57-0.96-0.99
			c-0.24-0.42-0.35-0.9-0.35-1.43s0.12-1.01,0.35-1.43c0.24-0.42,0.56-0.75,0.96-0.99c0.41-0.24,0.86-0.35,1.37-0.35
			C174.7,53.42,175.16,53.54,175.56,53.77z M173.27,54.47c-0.27,0.16-0.48,0.39-0.63,0.68c-0.15,0.3-0.23,0.64-0.23,1.04
			c0,0.39,0.08,0.74,0.23,1.04s0.36,0.52,0.63,0.68s0.58,0.24,0.93,0.24c0.34,0,0.65-0.08,0.92-0.24s0.48-0.39,0.63-0.68
			c0.15-0.3,0.23-0.64,0.23-1.04c0-0.39-0.08-0.74-0.23-1.04s-0.36-0.52-0.63-0.68s-0.57-0.24-0.92-0.24S173.54,54.31,173.27,54.47z
			"/>
		<path class="st0" d="M184.28,56.8v2.1h-0.88v-5.42h1.84c0.62,0,1.09,0.15,1.41,0.45c0.31,0.3,0.47,0.7,0.47,1.22
			c0,0.51-0.16,0.91-0.48,1.21c-0.32,0.29-0.79,0.44-1.4,0.44C185.24,56.8,184.28,56.8,184.28,56.8z M186.24,55.15
			c0-0.31-0.09-0.54-0.26-0.7s-0.45-0.24-0.83-0.24h-0.88v1.88h0.88C185.88,56.09,186.24,55.78,186.24,55.15z"/>
		<path class="st0" d="M193.06,57.73h-2.29l-0.41,1.17h-0.94l2-5.34h1.01l1.99,5.34h-0.94L193.06,57.73z M192.81,57.06l-0.9-2.53
			l-0.9,2.53H192.81z"/>
		<path class="st0" d="M199.84,58.91l-1.35-2.17h-0.62v2.17h-0.88v-5.42h1.91c0.62,0,1.09,0.15,1.41,0.45s0.48,0.7,0.48,1.2
			c0,0.42-0.12,0.77-0.36,1.04s-0.58,0.45-1.03,0.52l1.42,2.2L199.84,58.91L199.84,58.91z M197.86,56.12h0.97
			c0.71,0,1.06-0.31,1.06-0.94c0-0.3-0.09-0.53-0.26-0.69c-0.17-0.17-0.44-0.25-0.8-0.25h-0.97V56.12z"/>
		<path class="st0" d="M206.99,53.49v0.71h-1.51v4.71h-0.88V54.2h-1.51v-0.71H206.99z"/>
	</g>
	<g>
		<polygon class="st0" points="115.12,46.25 108,46.25 106.43,41.83 106.5,41.83 103.34,33.08 98.81,20.27 98.69,20.28 94.14,33.08 
			93.87,33.85 92.13,38.76 96.23,38.76 98.83,46.25 81.98,46.25 94.52,11.46 102.61,11.46 		"/>
		<polygon class="st0" points="177.17,46.25 170.05,46.25 168.48,41.83 168.55,41.83 165.39,33.08 160.86,20.27 160.74,20.28 
			156.19,33.08 155.92,33.85 154.18,38.76 158.28,38.76 160.88,46.25 144.03,46.25 156.57,11.46 164.66,11.46 		"/>
		<path class="st0" d="M143.08,14.45c-1.96-1.99-4.93-2.99-8.91-2.99h-14.9v34.79h7.15V33.07h7.75c3.88,0,6.83-1,8.84-2.99
			s3.01-4.59,3.01-7.79C146.02,19.05,145.04,16.44,143.08,14.45z M137.69,25.38c-0.78,0.75-1.96,1.12-3.52,1.12h-7.75v-8.47h7.75
			c1.56,0,2.74,0.38,3.52,1.15c0.79,0.77,1.18,1.8,1.18,3.11S138.48,24.62,137.69,25.38z"/>
		<path class="st0" d="M202.28,32.29c1.99-0.82,3.52-2.09,4.58-3.83c1.06-1.73,1.59-3.77,1.59-6.12c0-3.27-1.01-5.9-3.04-7.89
			c-2.02-1.99-4.88-2.99-8.57-2.99h-15.78v34.79h7.15V33.07h6.86l6.52,13.18h8.28L202.28,32.29z M200.17,25.4
			c-0.75,0.74-1.86,1.1-3.33,1.1h-8.63v-8.47h8.63c1.43,0,2.54,0.39,3.31,1.17c0.76,0.79,1.15,1.83,1.15,3.14
			C201.3,23.64,200.92,24.67,200.17,25.4z"/>
	</g>
</g>
</svg>
