<?xml version="1.0" standalone="no"?>
<!DOCTYPE svg PUBLIC "-//W3C//DTD SVG 1.1//EN" "http://www.w3.org/Graphics/SVG/1.1/DTD/svg11.dtd" >
<svg xmlns="http://www.w3.org/2000/svg">
<metadata>Generated by IcoMoon</metadata>
<defs>
<font id="apar" horiz-adv-x="1024">
<font-face units-per-em="1024" ascent="960" descent="-64" />
<missing-glyph horiz-adv-x="1024" />
<glyph unicode="&#x20;" horiz-adv-x="512" d="" />
<glyph unicode="&#xe900;" glyph-name="360" horiz-adv-x="1135" d="M1120.865 625.124c-2.768 2.768-33.211 13.838-80.259 27.676-2.768 0-5.535 2.768-5.535 5.535-80.259 177.124-260.151 301.665-467.719 301.665s-384.692-124.541-464.951-301.665c0-2.768-2.768-2.768-5.535-5.535-47.049-16.605-77.492-27.676-80.259-27.676l-16.605-8.303v-334.876l16.605-5.535c2.768 0 30.443-11.070 74.724-24.908 2.768 0 5.535-2.768 5.535-5.535 77.492-182.659 260.151-309.968 470.486-309.968s390.227 127.308 467.719 307.2c0 2.768 2.768 2.768 5.535 5.535 47.049 16.605 74.724 27.676 77.492 27.676l16.605 8.303v334.876l-13.838 5.535zM567.351 904.649c160.519 0 301.665-83.027 381.924-207.568 5.535-8.303-2.768-16.605-11.070-13.838-105.168 27.676-243.546 55.351-376.389 55.351-130.076 0-262.919-27.676-365.319-55.351-8.303-2.768-13.838 5.535-11.070 13.838 83.027 124.541 224.173 207.568 381.924 207.568zM567.351-8.649c-163.286 0-307.2 85.795-387.459 218.638-5.535 8.303 2.768 16.605 11.070 13.838 107.935-27.676 246.314-58.119 376.389-58.119 138.378 0 273.989 27.676 376.389 55.351 8.303 2.768 13.838-5.535 11.070-13.838-80.259-130.076-224.173-215.87-387.459-215.87zM1082.119 326.227c0-2.768-2.768-8.303-5.535-8.303-69.189-24.908-287.827-99.632-509.232-99.632-196.497 0-431.741 74.724-506.465 99.632-2.768 0-5.535 5.535-5.535 8.303v246.314c0 2.768 2.768 8.303 5.535 8.303 71.957 24.908 293.362 99.632 503.697 99.632 207.568 0 440.043-74.724 512-99.632 2.768 0 5.535-5.535 5.535-8.303 0 0 0-246.314 0-246.314zM517.535 351.135l177.124 102.4c8.303 5.535 8.303 19.373 0 22.141l-177.124 105.168c-8.303 5.535-19.373 0-19.373-11.070v-204.8c0-13.838 11.070-19.373 19.373-13.838z" />
<glyph unicode="&#xe901;" glyph-name="address" horiz-adv-x="926" d="M730.268 809.070h-270.512v150.93h-197.37v-150.93h-262.385v-417.959h262.385v-455.111h197.37v455.111h270.512l196.209 208.98-196.209 208.98zM308.825 913.56h104.49v-104.49h-104.49v104.49zM413.315-17.56h-104.49v408.671h104.49v-408.671zM710.531 437.551h-664.091v325.079h664.091l152.091-162.54-152.091-162.54z" />
<glyph unicode="&#xe902;" glyph-name="arrow-down-bold" horiz-adv-x="1638" d="M1638.4 960l-819.2-1024-819.2 1024h1638.4z" />
<glyph unicode="&#xe903;" glyph-name="arrow-down-thin" horiz-adv-x="1914" d="M1894.647 940.213c-26.383 26.383-69.256 26.383-95.639 0l-840.966-842.615-842.615 842.615c-26.383 26.383-69.256 26.383-95.639 0s-26.383-69.256 0-95.639l888.786-888.786c13.192-13.192 29.681-19.787 47.82-19.787 16.49 0 34.628 6.596 47.82 19.787l888.786 888.786c28.032 26.383 28.032 69.256 1.649 95.639z" />
<glyph unicode="&#xe904;" glyph-name="cart" d="M3.697 638.383h1016.606v-62.845h-1016.606v62.845zM131.235-64l-68.39 510.152v68.39h72.087v-64.693l59.148-443.61h635.841l59.148 443.61v64.693h72.087v-70.238l-68.39-508.303zM258.773 379.61c-1.848 0-5.545 0-9.242 1.848-18.484 3.697-29.574 24.029-25.877 42.513l127.538 508.303c3.697 16.635 18.484 27.726 35.119 27.726 1.848 0 5.545 0 7.394 0 9.242-1.848 16.635-7.394 22.181-16.635 5.545-7.394 7.394-18.484 5.545-27.726l-127.538-508.303c-5.545-16.635-20.332-27.726-35.119-27.726zM767.076 379.61c-16.635 0-31.422 11.090-35.119 27.726l-127.538 508.303c-1.848 9.242 0 20.332 5.545 27.726s12.939 12.939 22.181 14.787c1.848 0 5.545 0 7.394 0 16.635 0 31.422-11.090 35.119-27.726l127.538-506.455c1.848-9.242 0-18.484-3.697-27.726-5.545-9.242-12.939-14.787-20.332-16.635-3.697 0-5.545 0-7.394-1.848-1.848 1.848-1.848 1.848-3.697 1.848z" />
<glyph unicode="&#xe905;" glyph-name="change-pass" horiz-adv-x="740" d="M369.942-64c-204.208 0-369.942 165.734-369.942 369.942s165.734 369.942 369.942 369.942 369.942-165.734 369.942-369.942-165.734-369.942-369.942-369.942zM369.942 616.694c-171.653 0-310.751-139.098-310.751-310.751s139.098-310.751 310.751-310.751c171.653 0 310.751 139.098 310.751 310.751s-139.098 310.751-310.751 310.751zM369.942 163.884c-19.237 0-34.035 14.798-34.035 34.035v108.023l-2.96 2.96c-16.277 13.318-25.156 32.555-25.156 50.312 0 34.035 28.116 62.15 62.15 62.15s62.15-26.636 62.15-60.671c0-20.717-8.879-39.954-25.156-50.312l-2.96-1.48v-110.983c0-19.237-14.798-34.035-34.035-34.035zM136.139 782.428c0 97.665 79.908 177.572 177.572 177.572h110.983c48.832 0 93.225-19.237 127.26-53.272 32.555-34.035 50.312-76.948 50.312-124.301v-100.624c-20.717 13.318-39.954 23.676-59.191 31.075v69.549c0 65.11-53.272 118.382-118.382 118.382h-110.983c-65.11 0-118.382-53.272-118.382-118.382v-69.549c-19.237-8.879-38.474-19.237-59.191-31.075v100.624z" />
<glyph unicode="&#xe906;" glyph-name="filter" d="M953.191 960c4.357 0 5.447 0 9.804-1.089 6.536-1.089 13.072-3.268 18.519-6.536 6.536-3.268 11.983-6.536 16.34-10.894 8.715-7.626 15.251-17.43 19.609-28.323s6.536-22.877 5.447-34.86c-1.089-8.715-2.179-16.34-6.536-23.966-2.179-4.357-2.179-5.447-4.357-8.715l-314.826-527.251v-311.557c0-4.357 0-5.447-1.089-9.804-1.089-6.536-3.268-13.072-6.536-18.519-5.447-10.894-13.072-19.609-21.787-27.234-9.804-7.626-20.698-11.983-31.591-14.162-7.626-1.089-14.162-1.089-20.698-1.089s-13.072 2.179-19.609 4.357c-4.357 1.089-5.447 2.179-8.715 4.357l-217.872 108.936c-1.089 1.089-3.268 1.089-4.357 2.179-4.357 2.179-8.715 5.447-11.983 8.715-11.983 10.894-20.698 26.145-23.966 42.485-1.089 3.268-1.089 6.536-1.089 9.804 0 2.179 0 3.268 0 5.447v196.085l-317.004 526.162-2.179 4.357c-2.179 4.357-3.268 5.447-4.357 8.715-2.179 6.536-3.268 13.072-4.357 19.609 0 6.536 0 13.072 1.089 19.609 2.179 11.983 6.536 22.877 14.162 31.591 7.626 9.804 16.34 17.43 27.234 21.787 7.626 3.268 15.251 6.536 23.966 7.626 4.357 2.179 5.447 2.179 9.804 2.179h871.489c2.179 0 3.268 0 5.447 0zM76.255 883.745l326.809-544.681v-217.872l217.872-108.936v326.809l326.809 544.681c-290.86 0-580.63 0-871.489 0z" />
<glyph unicode="&#xe907;" glyph-name="free-ship" horiz-adv-x="2031" d="M2025.399 481.902l-208.625 309.46c-5.216 6.954-12.17 12.17-20.862 12.17h-205.148v12.17c0 79.973-64.326 144.299-144.299 144.299h-789.297c-79.973 0-144.299-64.326-144.299-144.299v-33.032h-512.869v-52.156h512.869v-137.345h-359.878v-52.156h358.139v-137.345h-186.024v-52.156h187.762v-53.895c0-79.973 64.326-144.299 144.299-144.299h22.601c-1.739-10.431-3.477-20.862-3.477-31.294 0-100.835 83.45-184.285 184.285-184.285s184.285 83.45 184.285 184.285c0 10.431-1.739 20.862-3.477 31.294h342.492c-1.739-10.431-3.477-20.862-3.477-31.294 0-100.835 83.45-184.285 184.285-184.285s184.285 83.45 184.285 184.285c0 10.431-1.739 20.862-3.477 31.294h259.042c13.908 0 26.078 12.17 26.078 26.078v286.859c0 5.216-1.739 10.431-5.216 15.647zM860.577-11.844c-73.019 0-132.129 59.11-132.129 132.129s59.11 132.129 132.129 132.129 132.129-59.11 132.129-132.129c0-73.019-59.11-132.129-132.129-132.129zM1024 203.735c-31.294 59.11-92.143 100.835-163.423 100.835s-133.868-41.725-163.423-100.835h-39.986c-50.418 0-92.143 41.725-92.143 92.143v519.823c0 50.418 41.725 92.143 92.143 92.143h789.297c50.418 0 92.143-41.725 92.143-92.143v-514.608c-60.849-8.693-111.267-46.941-137.345-99.097h-377.263zM1564.686-11.844c-73.019 0-132.129 59.11-132.129 132.129s59.11 132.129 132.129 132.129c73.019 0 132.129-59.11 132.129-132.129s-59.11-132.129-132.129-132.129zM1978.458 203.735h-250.35c-26.078 52.156-76.496 88.666-135.606 97.358v448.543h189.501l196.455-290.336v-255.565z" />
<glyph unicode="&#xe908;" glyph-name="heart" horiz-adv-x="1270" d="M634.816-64c-6.38 0-9.57 0-15.95 3.19-22.33 6.38-618.866 207.352-618.866 650.766 0 204.162 165.882 370.044 370.044 370.044 102.081 0 197.782-73.371 267.963-146.741 66.991 73.371 162.692 146.741 264.773 146.741 204.162 0 370.044-165.882 370.044-370.044 0-446.604-596.536-644.386-622.056-653.956-6.38 0-9.57 0-15.95 0zM370.044 864.299c-153.121 0-274.343-121.221-274.343-274.343 0-341.333 452.984-523.165 539.115-555.065 89.321 31.9 539.115 216.922 539.115 558.255 3.19 149.931-121.221 271.153-271.153 271.153-92.511 0-175.452-76.561-226.492-153.121-19.14-25.52-60.611-25.52-79.751 0-51.040 76.561-137.171 153.121-226.492 153.121z" />
<glyph unicode="&#xe909;" glyph-name="log-out" horiz-adv-x="909" d="M454.606 959.57c-19.321 0-34.095-15.911-34.095-34.095 0 0 0 0 0 0v-500.067c0-19.321 14.775-34.095 34.095-34.095s34.095 14.775 34.095 34.095c0 0 0 1.137 0 1.137v500.067c0 17.048-14.775 32.959-34.095 32.959 0 0 0 0 0 0zM725.097 744.769c-19.321 0-34.095-15.911-34.095-34.095 0-10.229 5.683-20.457 13.638-27.276 82.966-71.6 136.382-175.023 136.382-292.084 0-212.528-171.614-385.279-384.142-386.415-1.137 0-1.137 0-2.273 0-213.665 0-386.415 172.75-386.415 386.415 0 117.061 53.416 221.62 136.382 292.084 14.775 12.502 17.048 32.959 4.546 47.734-6.819 7.956-17.048 13.638-28.413 12.502-7.956 0-14.775-3.41-20.457-9.092-96.604-82.966-160.249-205.709-160.249-343.228 0-248.897 201.163-450.060 447.787-453.469 1.137 0 2.273 0 4.546-1.137 1.137 0 1.137 0 2.273 0 251.17 0 454.606 203.436 454.606 454.606 0 137.518-63.645 260.262-160.249 343.228-5.683 6.819-14.775 10.229-23.867 10.229z" />
<glyph unicode="&#xe90a;" glyph-name="order" horiz-adv-x="850" d="M577.085 717.017h-303.729c-30.373 0-56.407 26.034-56.407 56.407v130.169c0 30.373 26.034 56.407 56.407 56.407h303.729c30.373 0 56.407-26.034 56.407-56.407v-130.169c0-30.373-26.034-56.407-56.407-56.407zM286.373 786.441h277.695v104.136h-277.695v-104.136zM763.661-64h-676.881c-47.729 0-86.78 39.051-86.78 86.78v763.661c0 47.729 39.051 86.78 86.78 86.78h199.593v-86.78h277.695v86.78h199.593c47.729 0 86.78-39.051 86.78-86.78v-763.661c0-47.729-39.051-86.78-86.78-86.78zM86.78 803.797c-13.017 0-17.356-4.339-17.356-17.356v-763.661c0-13.017 4.339-17.356 17.356-17.356h676.881c13.017 0 17.356 4.339 17.356 17.356v763.661c0 13.017-4.339 17.356-17.356 17.356h-130.169v-30.373c0-30.373-26.034-56.407-56.407-56.407h-303.729c-30.373 0-56.407 26.034-56.407 56.407v30.373h-130.169zM512 500.068h-303.729c-17.356 0-34.712 17.356-34.712 34.712s17.356 34.712 34.712 34.712h303.729c17.356 0 34.712-17.356 34.712-34.712s-17.356-34.712-34.712-34.712zM642.169 152.949h-303.729c-17.356 0-34.712 17.356-34.712 34.712s17.356 34.712 34.712 34.712h303.729c17.356 0 34.712-17.356 34.712-34.712s-17.356-34.712-34.712-34.712zM642.169 326.508h-433.898c-17.356 0-34.712 17.356-34.712 34.712s17.356 34.712 34.712 34.712h433.898c17.356 0 34.712-17.356 34.712-34.712s-17.356-34.712-34.712-34.712z" />
<glyph unicode="&#xe90b;" glyph-name="play" horiz-adv-x="1376" d="M160 959.395c-88 0-160-72-160-160v-704c0-88 72-160 160-160h1056c88 0 160 72 160 160v704c0 88-72 160-160 160h-1056zM160 895.395h1056c54.4 0 96-41.6 96-96v-704c0-54.4-41.6-96-96-96h-1056c-54.4 0-96 41.6-96 96v704c0 54.4 41.6 96 96 96zM558.4 706.595c-16-1.6-28.8-17.6-28.8-35.2v-448c0-12.8 6.4-24 16-30.4s22.4-6.4 32 0l352 224c19.2 11.2 19.2 48 0 59.2l-352 224c-8 4.8-12.8 6.4-19.2 6.4v0zM590.4 613.795l259.2-164.8-259.2-164.8v329.6z" />
<glyph unicode="&#xe90c;" glyph-name="quick-view" d="M977.455 960h-325.818c-25.6 0-46.545-20.945-46.545-46.545s20.945-46.545 46.545-46.545h214.109l-269.964-269.964c-18.618-18.618-18.618-46.545 0-65.164 9.309-9.309 20.945-13.964 32.582-13.964s23.273 4.655 32.582 13.964l269.964 269.964v-214.109c0-25.6 20.945-46.545 46.545-46.545s46.545 20.945 46.545 46.545v325.818c0 25.6-20.945 46.545-46.545 46.545zM363.055 364.218l-269.964-269.964v214.109c0 25.6-20.945 46.545-46.545 46.545s-46.545-20.945-46.545-46.545v-325.818c0-25.6 20.945-46.545 46.545-46.545h325.818c25.6 0 46.545 20.945 46.545 46.545s-20.945 46.545-46.545 46.545h-214.109l269.964 269.964c18.618 18.618 18.618 46.545 0 65.164s-46.545 18.618-65.164 0z" />
<glyph unicode="&#xe90d;" glyph-name="refund" horiz-adv-x="890" d="M473.894 522.133v40.184h-45.727v-40.184l-5.543-1.386c-24.942-2.771-103.924-18.014-103.924-90.068 0-70.668 58.198-83.139 127.48-91.453 38.798-4.157 88.682-15.242 88.682-54.041 0-36.027-34.641-58.198-88.682-58.198-36.027 0-80.368 16.628-96.996 47.112l-42.955-18.014c26.327-54.041 83.139-67.897 115.009-70.668h6.928v-44.341h45.727v47.112h6.928c52.655 4.157 105.31 34.641 105.31 96.996 0 74.825-62.355 87.296-137.18 96.996-37.413 4.157-83.139 9.7-83.139 48.498 0 33.256 30.484 51.269 81.754 51.269 33.256 0 66.512-13.857 81.754-34.641l38.798 18.014c-18.014 30.484-45.727 48.498-90.068 54.041l-4.157 2.771zM717.77 732.752c-9.7 6.928-22.171 5.543-29.099-4.157s-5.543-22.171 4.157-29.099c116.395-90.068 174.593-236.947 151.037-381.055-34.641-218.934-241.104-369.97-461.424-335.329s-369.97 241.104-335.329 461.424c16.628 106.696 73.44 199.535 160.736 263.275 76.211 55.426 167.664 81.754 259.118 76.211l-105.31-105.31c-8.314-8.314-8.314-20.785 0-29.099 4.157-4.157 9.7-5.543 15.242-5.543s11.085 1.386 15.242 5.543l152.422 152.422-152.422 152.422c-8.314 8.314-20.785 8.314-29.099 0s-8.314-20.785 0-29.099l98.382-98.382c-98.382 2.771-195.378-26.327-277.131-84.525-95.61-69.283-159.35-173.207-177.364-290.988-38.798-242.49 127.48-471.123 369.97-508.536 23.556-4.157 47.112-5.543 70.668-5.543 92.839 0 184.292 29.099 260.503 85.911 95.61 70.668 159.35 173.207 177.364 290.988 24.942 157.965-38.798 320.087-167.664 418.468z" />
<glyph unicode="&#xe90e;" glyph-name="right-arrow" horiz-adv-x="3891" d="M102.4 550.4c-61.44 0-102.4-40.96-102.4-102.4s40.96-102.4 102.4-102.4h3174.4v-307.2c0-81.92 102.4-143.36 184.32-81.92l409.6 409.6c40.96 40.96 40.96 102.4 0 143.36l-409.6 409.6c-61.44 61.44-184.32 20.48-184.32-81.92v-307.2h-3174.4z" />
<glyph unicode="&#xe90f;" glyph-name="search" d="M575.716 960c-120.604 0-233.244-46.649-317.44-131.982-85.333-84.196-131.982-196.836-131.982-316.302 0-108.089 38.684-210.489 108.089-292.409l-224.142-225.28c-13.653-13.653-13.653-35.271 0-47.787 6.827-6.827 14.791-10.24 23.893-10.24s17.067 3.413 23.893 10.24l225.28 225.28c80.782-70.542 184.32-108.089 292.409-108.089 119.467 0 232.107 46.649 317.44 131.982 84.196 83.058 130.844 195.698 130.844 316.302s-46.649 232.107-131.982 316.302-196.836 131.982-316.302 131.982zM844.231 242.062c-71.68-71.68-167.253-111.502-268.516-111.502s-196.836 39.822-268.516 111.502-111.502 167.253-111.502 268.516 39.822 196.836 111.502 268.516c70.542 72.818 166.116 112.64 268.516 112.64s196.836-39.822 268.516-111.502c71.68-71.68 111.502-167.253 111.502-268.516s-39.822-197.973-111.502-269.653z" />
<glyph unicode="&#xe910;" glyph-name="secure" horiz-adv-x="1589" d="M1396.364 960h-1203.835c-105.785 0-192.529-78.281-192.529-173.488v-677.025c0-95.207 86.744-173.488 192.529-173.488h1203.835c105.785 0 192.529 78.281 192.529 173.488v677.025c0 95.207-86.744 173.488-192.529 173.488zM1525.421 109.488c0-61.355-59.24-110.017-129.058-110.017h-1203.835c-69.818 0-129.058 50.777-129.058 110.017v476.033h1459.835v63.471h-1459.835v137.521c0 61.355 59.24 110.017 129.058 110.017h1203.835c71.934 0 129.058-48.661 129.058-110.017v-677.025zM209.455 289.322h179.835v-63.471h-179.835v63.471zM440.066 289.322h179.835v-63.471h-179.835v63.471z" />
<glyph unicode="&#xe911;" glyph-name="sort" horiz-adv-x="1235" d="M512 387.765v120.471h481.882v-120.471h-481.882zM512 26.353v120.471h240.941v-120.471h-240.941zM512 749.176v120.471h722.824v-120.471h-722.824zM271.059 146.824h150.588l-210.824-210.824-210.824 210.824h150.588v602.353h-150.588l210.824 210.824 210.824-210.824h-150.588v-602.353z" />
<glyph unicode="&#xe912;" glyph-name="user" horiz-adv-x="996" d="M754.054 438.039c-20.918-22.911-43.829-42.833-69.728-59.767 134.475-3.984 242.054-114.553 242.054-250.023v-122.521h-856.654v122.521c0 135.471 107.58 246.039 242.054 250.023-25.899 16.934-49.805 36.856-69.728 59.767-139.455-34.864-242.054-160.374-242.054-309.79v-157.385c0-18.926 15.938-34.864 34.864-34.864h926.381c18.926 0 34.864 15.938 34.864 34.864v157.385c0 149.416-102.599 274.926-242.054 309.79zM498.054 373.292c-161.37 0-293.852 131.486-293.852 293.852s132.482 292.856 293.852 292.856 293.852-131.486 293.852-293.852-132.482-292.856-293.852-292.856zM498.054 890.272c-123.518 0-224.125-100.607-224.125-224.125s100.607-223.128 224.125-223.128 224.125 100.607 224.125 224.125-100.607 223.128-224.125 223.128z" />
<glyph unicode="&#xe913;" glyph-name="user-detail" horiz-adv-x="1003" d="M918.069-66.669v0c0 197.738-183.614 353.103-416.662 353.103s-416.662-155.366-416.662-346.041v-7.062h-84.745v7.062c0 240.11 225.986 430.786 501.407 430.786s501.407-190.676 501.407-430.786v-7.062h-84.745zM501.407 484.172c-127.117 0-218.924 91.807-218.924 218.924s91.807 218.924 218.924 218.924c127.117 0 218.924-91.807 218.924-218.924s-91.807-218.924-218.924-218.924zM501.407 844.337c-77.683 0-141.241-63.559-141.241-141.241 0-70.621 70.621-141.241 141.241-141.241 77.683 0 141.241 63.559 141.241 141.241s-63.559 141.241-141.241 141.241z" />
<glyph unicode="&#xe914;" glyph-name="view-2" d="M804.571 521.143c-120.686 0-219.429 98.743-219.429 219.429s98.743 219.429 219.429 219.429 219.429-98.743 219.429-219.429-98.743-219.429-219.429-219.429zM219.429-64c-120.686 0-219.429 98.743-219.429 219.429s98.743 219.429 219.429 219.429 219.429-98.743 219.429-219.429-98.743-219.429-219.429-219.429zM219.429 521.143c-120.686 0-219.429 98.743-219.429 219.429s98.743 219.429 219.429 219.429 219.429-98.743 219.429-219.429-98.743-219.429-219.429-219.429zM804.571 374.857c120.686 0 219.429-98.743 219.429-219.429s-98.743-219.429-219.429-219.429-219.429 98.743-219.429 219.429 98.743 219.429 219.429 219.429z" />
<glyph unicode="&#xe915;" glyph-name="view-3" d="M256 832c0-70.692-57.308-128-128-128s-128 57.308-128 128c0 70.692 57.308 128 128 128s128-57.308 128-128zM640 832c0-70.692-57.308-128-128-128s-128 57.308-128 128c0 70.692 57.308 128 128 128s128-57.308 128-128zM256 448c0-70.692-57.308-128-128-128s-128 57.308-128 128c0 70.692 57.308 128 128 128s128-57.308 128-128zM640 448c0-70.692-57.308-128-128-128s-128 57.308-128 128c0 70.692 57.308 128 128 128s128-57.308 128-128zM1024 448c0-70.692-57.308-128-128-128s-128 57.308-128 128c0 70.692 57.308 128 128 128s128-57.308 128-128zM256 64c0-70.692-57.308-128-128-128s-128 57.308-128 128c0 70.692 57.308 128 128 128s128-57.308 128-128zM640 64c0-70.692-57.308-128-128-128s-128 57.308-128 128c0 70.692 57.308 128 128 128s128-57.308 128-128zM1024 64c0-70.692-57.308-128-128-128s-128 57.308-128 128c0 70.692 57.308 128 128 128s128-57.308 128-128zM1024 832c0-70.692-57.308-128-128-128s-128 57.308-128 128c0 70.692 57.308 128 128 128s128-57.308 128-128z" />
<glyph unicode="&#xe916;" glyph-name="warranty" horiz-adv-x="1787" d="M1595.185 960h-1403.538c-105.218 0-191.648-77.035-191.648-170.98v-682.040c0-93.945 86.429-170.98 191.648-170.98h1403.538c105.218 0 191.648 77.035 191.648 170.98v682.040c0 93.945-86.429 170.98-191.648 170.98zM1730.466 106.98c0-63.883-60.125-114.613-135.281-114.613h-1037.152v84.55h-56.367v-84.55h-310.018c-75.156 0-135.281 50.73-135.281 114.613v682.040c0 63.883 60.125 114.613 135.281 114.613h310.018v-37.578h56.367v37.578h1039.031c75.156 0 135.281-50.73 135.281-114.613l-1.879-682.040zM501.666 753.321h56.367v-112.734h-56.367v112.734zM501.666 302.385h56.367v-112.734h-56.367v112.734zM501.666 527.853h56.367v-112.734h-56.367v112.734zM947.468 135.492l339.697 638.669 49.766-26.47-339.697-638.669-49.766 26.47zM1057.82 618.040c0 75.156-60.125 135.281-135.281 135.281s-135.281-60.125-135.281-135.281c0-75.156 60.125-135.281 135.281-135.281s135.281 60.125 135.281 135.281zM922.539 539.127c-43.215 0-78.914 35.699-78.914 78.914s35.699 78.914 78.914 78.914 78.914-35.699 78.914-78.914-35.699-78.914-78.914-78.914zM1360.323 401.967c-75.156 0-135.281-60.125-135.281-135.281s60.125-135.281 135.281-135.281 135.281 60.125 135.281 135.281-60.125 135.281-135.281 135.281zM1360.323 187.772c-43.215 0-78.914 35.699-78.914 78.914s35.699 78.914 78.914 78.914 78.914-35.699 78.914-78.914-33.82-78.914-78.914-78.914z" />
</font>
</defs>
</svg>
